<svg xmlns="http://www.w3.org/2000/svg" width="1271" height="446" viewBox="2 0 1271 446"><path fill="#7cddc8" d="M1.81 0H1273v94.58q-6.84-.59-13.68-1.23c-31.22-2.9-64.29 8.18-89.78 25.88a1 1.01 41.3 0 1-1.04.07q-12.74-6.67-26.84-8.84c-18.82-2.91-38.19 9.1-52.29 19.45a1 .99 43.2 0 1-1.15.03c-28.34-18.83-51.02-11.18-75.95 8.23a1.01 1 41.4 0 1-1.13.07q-8.68-5.15-14.46-8.17c-14.86-7.78-34.03-3.4-47.47 5.38a1 1.01 50.7 0 1-1.24-.12c-17.25-16.63-36.84-26.86-61.48-25.82q-10.45.44-26.44 5.58-2.35.76-14.16 6.41a1 1 0 0 1-1.41-.71q-2.3-11.38-7.61-21.69c-9.48-18.39-28.78-33.92-50.33-32.14-28.44 2.36-45.15 22.18-53.94 47.66a1.01 1.01 0 0 1-1.48.53q-15.11-9.39-33.13-11.83c-21.67-2.94-46.63 7.34-63.52 20.4a1 1 0 0 1-1.28-.05c-13.31-12.08-32.41-22.26-50.69-21.89-13.58.28-30.52 5.56-39.99 15.73q-11.3 12.12-19.15 26.73a1 1 0 0 1-1.6.22c-14.15-14.72-29.65-28.6-49.33-35.41-22.57-7.82-48.13-5.24-67.5 8.89q-8.31 6.06-16.01 13.95a1 1 0 0 1-1.33.09c-15.12-11.71-34.26-21.22-53.81-16.23-5.86 1.5-12.56 5.13-18.4 7.85q-2.44 1.14-4.49-.62c-17.99-15.46-37.88-25.37-61.91-20.41q-26.29 5.43-43.02 26.33a.99 1 32.9 0 1-1.23.27c-12.99-6.56-25.29-11.71-40.19-9.66-12.14 1.67-22.44 8.62-30.64 17.7a1 .99 36.1 0 1-1.24.19q-9.71-5.57-19.5-10.48c-28.93-14.5-60.43-17.18-91.93-10.81q-3.67.74-8.25 2.45c-3.83 1.42-8.08 3.43-10.94 2.19zM225.3 20.72c6.84-2.88 1.8-10.55-4.52-9.54-10.64 1.69-2.01 17.59 4.12 9.84q.16-.2.4-.3zm799.8004 7.4371a12.48 13.42 84.6 0 0-14.5349-11.1617 12.48 13.42 84.6 0 0-12.1859 13.6875 12.48 13.42 84.6 0 0 14.5349 11.1617 12.48 13.42 84.6 0 0 12.1859-13.6875zm-247.777 2.7236a10.37 9.84 8.6 0 0-8.782-11.2801 10.37 9.84 8.6 0 0-11.7248 8.1787 10.37 9.84 8.6 0 0 8.782 11.2801 10.37 9.84 8.6 0 0 11.7248-8.1787zM542.36 33.78c-8.65-.43-11.25 11.74-.83 12.91 7.87.88 9.02-12.51.83-12.91zm382.1 25.08c9.52-6.75 5-21.77-6.73-22.39-7.28-.39-16.97 5.27-15.45 13.78 1.84 10.22 14 14.42 22.18 8.61zm-777.2713-6.3116a10.72 10.16.9 0 0-10.5591-10.3271 10.72 10.16.9 0 0-10.8783 9.9903 10.72 10.16.9 0 0 10.5591 10.3271 10.72 10.16.9 0 0 10.8783-9.9903zm303.2905 9.961a9.97 10.52 86.4 0 0-11.1252-9.2897 9.97 10.52 86.4 0 0-9.8732 10.6109 9.97 10.52 86.4 0 0 11.1252 9.2897 9.97 10.52 86.4 0 0 9.8732-10.6109z"/><path fill="#aeebdf" d="M224.9 21.02c-6.13 7.75-14.76-8.15-4.12-9.84 6.32-1.01 11.36 6.66 4.52 9.54q-.24.1-.4.3z"/><ellipse cx="1004.4811" cy="124.50258" fill="#aeebdf" rx="13.42" ry="12.48" transform="rotate(-5.4)"/><ellipse cx="762.83124" cy="-85.70385" fill="#aeebdf" rx="10.37" ry="9.8400002" transform="rotate(8.6)"/><path fill="#aeebdf" d="M541.53 46.69c-10.42-1.17-7.82-13.34.83-12.91 8.19.4 7.04 13.79-.83 12.91zm382.93 12.17c-8.18 5.81-20.34 1.61-22.18-8.61-1.52-8.51 8.17-14.17 15.45-13.78 11.73.62 16.25 15.64 6.73 22.39z"/><ellipse cx="137.27591" cy="50.229961" fill="#aeebdf" rx="10.72" ry="10.16" transform="rotate(.9)"/><ellipse cx="435.14532" cy="90.671921" fill="#aeebdf" rx="10.52" ry="9.9700003" transform="rotate(-3.6)"/></svg>
